<svg width="13" height="13" viewBox="0 0 13 13" fill="none" xmlns="http://www.w3.org/2000/svg">
<path fill-rule="evenodd" clip-rule="evenodd" d="M0.635181 0.635181C0.815423 0.454939 1.10765 0.454939 1.2879 0.635181L6.5 5.84729L11.7121 0.635181C11.8923 0.454939 12.1846 0.454939 12.3648 0.635181C12.5451 0.815423 12.5451 1.10765 12.3648 1.2879L7.15271 6.5L12.3648 11.7121C12.5451 11.8923 12.5451 12.1846 12.3648 12.3648C12.1846 12.5451 11.8923 12.5451 11.7121 12.3648L6.5 7.15271L1.2879 12.3648C1.10765 12.5451 0.815423 12.5451 0.635181 12.3648C0.454939 12.1846 0.454939 11.8923 0.635181 11.7121L5.84729 6.5L0.635181 1.2879C0.454939 1.10765 0.454939 0.815423 0.635181 0.635181Z" fill="#404968"/>
</svg>
