<svg width="29" height="24" viewBox="0 0 29 24" fill="none" xmlns="http://www.w3.org/2000/svg">
<path d="M25.6552 0C25.6552 1.76592 24.2404 3.19749 22.4953 3.19749C24.2404 3.19749 25.6552 4.62906 25.6552 6.39498C25.6552 4.62906 27.0699 3.19749 28.815 3.19749C27.0699 3.19749 25.6552 1.76592 25.6552 0Z" fill="white"/>
<path d="M2.52038 17.7555C2.52038 19.1682 1.39196 20.3135 0 20.3135C1.39196 20.3135 2.52038 21.4587 2.52038 22.8715C2.52038 21.4587 3.64879 20.3135 5.04075 20.3135C3.64879 20.3135 2.52038 19.1682 2.52038 17.7555Z" fill="white"/>
<path d="M4.9279 21.3668C4.9279 22.0939 4.37211 22.6834 3.68652 22.6834C4.37211 22.6834 4.9279 23.2729 4.9279 24C4.9279 23.2729 5.48369 22.6834 6.16928 22.6834C5.48369 22.6834 4.9279 22.0939 4.9279 21.3668Z" fill="white"/>
<path fill-rule="evenodd" clip-rule="evenodd" d="M2.7837 12.3762C2.7837 18.6712 7.90365 23.7743 14.2194 23.7743C20.5352 23.7743 25.6552 18.6712 25.6552 12.3762C25.6552 6.08117 20.5352 0.978056 14.2194 0.978056C7.90365 0.978056 2.7837 6.08117 2.7837 12.3762ZM21.9715 6.29362C21.35 5.78229 20.7757 5.20794 20.2644 4.58652C18.8293 2.84253 16.6542 1.73041 14.2194 1.73041C11.7846 1.73041 9.60957 2.84253 8.17453 4.58651C7.66318 5.20793 7.08882 5.78229 6.4674 6.29363C4.72341 7.72867 3.61129 9.90373 3.61129 12.3386C3.61129 14.7734 4.72341 16.9484 6.4674 18.3835C7.08882 18.8948 7.66318 19.4692 8.17452 20.0906C9.60957 21.8346 11.7846 22.9467 14.2194 22.9467C16.6542 22.9467 18.8293 21.8346 20.2644 20.0906C20.7757 19.4692 21.35 18.8948 21.9715 18.3835C23.7154 16.9484 24.8276 14.7734 24.8276 12.3386C24.8276 9.90375 23.7154 7.72867 21.9715 6.29362Z" fill="url(#paint0_linear_33_2105)"/>
<path d="M7.52351 8.5768C7.52351 7.70423 8.23087 6.99686 9.10345 6.99686H12.5206C12.9018 6.99686 13.2701 7.13467 13.5577 7.38486L14.5682 8.26404C14.8557 8.51424 15.224 8.65204 15.6052 8.65204H19.2602C20.1328 8.65204 20.8401 9.3594 20.8401 10.232V16.1755C20.8401 17.0481 20.1328 17.7555 19.2602 17.7555H9.10345C8.23087 17.7555 7.52351 17.0481 7.52351 16.1755V8.5768Z" fill="url(#paint1_linear_33_2105)"/>
<defs>
<linearGradient id="paint0_linear_33_2105" x1="12.9553" y1="5.47006" x2="8.70167" y2="17.8334" gradientUnits="userSpaceOnUse">
<stop stop-color="#7B61FF"/>
<stop offset="0.288323" stop-color="#408FFD"/>
<stop offset="0.734375" stop-color="#00B3FF"/>
<stop offset="1" stop-color="#4DDEFA"/>
</linearGradient>
<linearGradient id="paint1_linear_33_2105" x1="12.9553" y1="5.47006" x2="8.70167" y2="17.8334" gradientUnits="userSpaceOnUse">
<stop stop-color="#7B61FF"/>
<stop offset="0.288323" stop-color="#408FFD"/>
<stop offset="0.734375" stop-color="#00B3FF"/>
<stop offset="1" stop-color="#4DDEFA"/>
</linearGradient>
</defs>
</svg>
